# xmcd CD database file
#
# Track frame offsets:
#	150
#	28302
#	56052
#	88637
#	121755
#	167540
#
# Disc length: 2608 seconds
#
# Revision: 0
# Processed by: cddbd v1.4PL0 Copyright (c) Steve Scherf et al.
# Submitted via: CDex 1.51
#
DISCID=460a2e06
DTITLE=Bernard Primeau Jazz Ensemble - Oeuvres de Félix Leclerc
DYEAR=1996
DGENRE=Jazz
TTITLE0=Le train du nord
TTITLE1=Hymne au Primtemps
TTITLE2=Le tour de l'île
TTITLE3=Bozo
TTITLE4=Le p'tit bonheur
TTITLE5=Sors-moi donc Albert
EXTD=YEAR: 1996
EXTT0=
EXTT1=
EXTT2=
EXTT3=
EXTT4=
EXTT5=
PLAYORDER=
